:SAMPLES-PER-SECOND 30
:FULLY-SPECIFIED
:DEGREES
466
root  12.5714 37.2899 -4.00975 -93.8375 -85.0499 84.2975
RightUpLeg  -22.8909 -11.3902 -13.6313
RightLeg  19.497 4.22222 1.45093
RightFoot  11.0164 -1.24148 6.64965
RightToes  0.000482159 0.542163 -0.142577
Spine  23.5363 -0.845184 -7.12005
Spine1  -3.98247 -3.38608 7.91525
HEad  -47.5329 2.53191 3.20517
LeftShoulder1  8.71391 -13.3102 -45.1695
LeftArm  -5.27238 6.34275 -34.9898
LeftForeArm  73.949 -72.3476 -26.2388
LeftHand  -0.25398 0.0180481 5.50724
RightShoulder  5.08816 8.88519 35.1133
RightArm  -5.54986 -24.5116 33.8233
RightForeArm  4.40087 53.3693 14.8711
RightHand  -4.58895 11.9546 -30.459
LeftUpLeg  -3.54624 4.79913 -0.0887536
LeftLeg  48.3348 4.99224 6.49214
LeftFoot  -17.5664 -0.40528 -9.41761
LeftToes  1.06246e-005 4.65855e-005 -8.18502e-006
467
root  11.2286 37.0875 -4.62376 -102.794 -86.3577 92.2737
RightUpLeg  -23.5595 -11.5712 -11.3293
RightLeg  26.14 5.08638 2.47226
RightFoot  10.9579 -0.484091 2.76204
RightToes  0.000482159 0.542163 -0.142577
Spine  23.5397 -1.41657 -2.87377
Spine1  -2.86419 -2.86954 6.0731
HEad  -48.0522 4.37484 0.978909
LeftShoulder1  8.80036 -13.2479 -45.8075
LeftArm  -6.7658 5.86105 -33.9736
LeftForeArm  72.1725 -70.4999 -23.261
LeftHand  -0.25398 0.0180481 5.50724
RightShoulder  5.1587 8.92796 35.5208
RightArm  -6.30846 -24.6754 33.2698
RightForeArm  3.33315 52.6965 14.5801
RightHand  -4.57992 11.981 -30.3583
LeftUpLeg  -4.78065 5.40791 2.18269
LeftLeg  55.5919 6.8816 11.2226
LeftFoot  -11.3924 0.0330706 -8.03197
LeftToes  1.06246e-005 4.65855e-005 -8.18502e-006
468
root  10.1061 36.9974 -5.14019 -122.844 -87.23 111.512
RightUpLeg  -23.8221 -11.4616 -9.50257
RightLeg  31.7294 4.66368 2.85599
RightFoot  6.52387 -0.00882055 0.370668
RightToes  0.000482159 0.542163 -0.142577
Spine  23.9311 -1.68248 0.332882
Spine1  -1.62666 -2.4114 5.48338
HEad  -49.3564 6.5818 -1.19261
LeftShoulder1  9.14182 -13.5913 -46.656
LeftArm  -9.09565 6.04488 -33.3067
LeftForeArm  68.3765 -67.0548 -19.1462
LeftHand  -0.25398 0.0180481 5.50724
RightShoulder  5.50127 9.54501 36.1754
RightArm  -5.64933 -22.7833 31.9058
RightForeArm  0.923694 49.4915 13.13
RightHand  -4.68101 12.2938 -30.4739
LeftUpLeg  -7.13511 6.46386 3.29128
LeftLeg  61.8932 7.50748 15.396
LeftFoot  -5.18596 0.189925 -2.84254
LeftToes  1.06246e-005 4.65855e-005 -8.18502e-006
469
root  9.09912 37.1226 -5.63474 -133.803 -87.066 122.372
RightUpLeg  -23.1749 -11.0701 -8.81971
RightLeg  34.256 4.16614 2.79117
RightFoot  2.66464 0.0427678 -0.179568
RightToes  0.000482159 0.542163 -0.142577
Spine  23.8105 -1.61527 0.874542
Spine1  -0.735335 -2.438 6.60666
HEad  -50.5522 9.00561 -2.99059
LeftShoulder1  9.40859 -13.8503 -47.3175
LeftArm  -10.8543 6.97617 -32.8674
LeftForeArm  63.4473 -62.5388 -15.458
LeftHand  -0.25398 0.0180481 5.50724
RightShoulder  5.67529 9.91396 36.3084
RightArm  -4.25438 -19.4624 31.3543
RightForeArm  -0.105172 44.1256 10.8849
RightHand  -4.66548 12.4001 -30.2075
LeftUpLeg  -9.99741 7.49405 2.41054
LeftLeg  64.6917 6.27869 14.847
LeftFoot  -3.37655 -0.0489369 1.18659
LeftToes  1.06246e-005 4.65855e-005 -8.18502e-006
470
root  8.13991 37.4563 -6.09436 -133.678 -86.7374 122.904
RightUpLeg  -22.0077 -10.4033 -8.45703
RightLeg  34.0751 3.75071 2.46928
RightFoot  1.48211 0.0537163 -0.386786
RightToes  0.000482159 0.542163 -0.142577
Spine  22.9599 -1.50618 0.837587
Spine1  -0.314245 -2.53405 7.37613
HEad  -51.4207 10.9869 -4.27756
LeftShoulder1  9.4607 -13.8363 -47.6224
LeftArm  -10.863 7.80295 -32.5716
LeftForeArm  57.5125 -56.7924 -12.2388
LeftHand  -0.25398 0.0180481 5.50724
RightShoulder  5.62161 9.79863 36.2726
RightArm  -3.90409 -16.5097 31.9262
RightForeArm  0.622622 38.8285 8.97208
RightHand  -4.59339 12.3999 -29.7703
LeftUpLeg  -12.5789 8.38209 0.537681
LeftLeg  63.4348 5.11152 11.6826
LeftFoot  -5.68705 -0.0196561 0.865111
LeftToes  1.06246e-005 4.65855e-005 -8.18502e-006
